<mxfile host="app.diagrams.net" modified="2023-02-16T09:47:09.068Z" agent="5.0 (Windows NT 10.0; Win64; x64) AppleWebKit/537.36 (KHTML, like Gecko) Chrome/109.0.0.0 Safari/537.36" etag="ZHCnpzoR4uFfJy5kFFYo" version="20.8.20" type="github">
  <diagram id="C5RBs43oDa-KdzZeNtuy" name="Page-1">
    <mxGraphModel dx="1434" dy="796" grid="1" gridSize="10" guides="1" tooltips="1" connect="1" arrows="1" fold="1" page="1" pageScale="1" pageWidth="827" pageHeight="1169" math="0" shadow="0">
      <root>
        <mxCell id="WIyWlLk6GJQsqaUBKTNV-0" />
        <mxCell id="WIyWlLk6GJQsqaUBKTNV-1" parent="WIyWlLk6GJQsqaUBKTNV-0" />
        <mxCell id="U3PedLdftcRpJFfK1BTl-7" style="edgeStyle=orthogonalEdgeStyle;rounded=0;orthogonalLoop=1;jettySize=auto;html=1;exitX=0.5;exitY=1;exitDx=0;exitDy=0;entryX=0.5;entryY=0;entryDx=0;entryDy=0;" edge="1" parent="WIyWlLk6GJQsqaUBKTNV-1" source="U3PedLdftcRpJFfK1BTl-0" target="U3PedLdftcRpJFfK1BTl-6">
          <mxGeometry relative="1" as="geometry" />
        </mxCell>
        <mxCell id="U3PedLdftcRpJFfK1BTl-0" value="START" style="ellipse;whiteSpace=wrap;html=1;" vertex="1" parent="WIyWlLk6GJQsqaUBKTNV-1">
          <mxGeometry x="360" y="20" width="120" height="80" as="geometry" />
        </mxCell>
        <mxCell id="U3PedLdftcRpJFfK1BTl-1" value="KONIEC" style="ellipse;whiteSpace=wrap;html=1;" vertex="1" parent="WIyWlLk6GJQsqaUBKTNV-1">
          <mxGeometry x="360" y="420" width="120" height="80" as="geometry" />
        </mxCell>
        <mxCell id="U3PedLdftcRpJFfK1BTl-9" style="edgeStyle=orthogonalEdgeStyle;rounded=0;orthogonalLoop=1;jettySize=auto;html=1;exitX=0.5;exitY=1;exitDx=0;exitDy=0;entryX=0.5;entryY=0;entryDx=0;entryDy=0;" edge="1" parent="WIyWlLk6GJQsqaUBKTNV-1" source="U3PedLdftcRpJFfK1BTl-6" target="U3PedLdftcRpJFfK1BTl-8">
          <mxGeometry relative="1" as="geometry" />
        </mxCell>
        <mxCell id="U3PedLdftcRpJFfK1BTl-6" value="Podaj a&lt;br&gt;Wynik = 0&lt;br&gt;i = 0" style="rounded=0;whiteSpace=wrap;html=1;" vertex="1" parent="WIyWlLk6GJQsqaUBKTNV-1">
          <mxGeometry x="360" y="120" width="120" height="60" as="geometry" />
        </mxCell>
        <mxCell id="U3PedLdftcRpJFfK1BTl-12" style="edgeStyle=orthogonalEdgeStyle;rounded=0;orthogonalLoop=1;jettySize=auto;html=1;exitX=0.5;exitY=1;exitDx=0;exitDy=0;entryX=0.5;entryY=0;entryDx=0;entryDy=0;" edge="1" parent="WIyWlLk6GJQsqaUBKTNV-1" source="U3PedLdftcRpJFfK1BTl-8" target="U3PedLdftcRpJFfK1BTl-10">
          <mxGeometry relative="1" as="geometry" />
        </mxCell>
        <mxCell id="U3PedLdftcRpJFfK1BTl-15" style="edgeStyle=orthogonalEdgeStyle;rounded=0;orthogonalLoop=1;jettySize=auto;html=1;exitX=0;exitY=0.5;exitDx=0;exitDy=0;entryX=1;entryY=0.5;entryDx=0;entryDy=0;" edge="1" parent="WIyWlLk6GJQsqaUBKTNV-1" source="U3PedLdftcRpJFfK1BTl-8" target="U3PedLdftcRpJFfK1BTl-14">
          <mxGeometry relative="1" as="geometry" />
        </mxCell>
        <mxCell id="U3PedLdftcRpJFfK1BTl-8" value="i &amp;lt; a.długość" style="rhombus;whiteSpace=wrap;html=1;" vertex="1" parent="WIyWlLk6GJQsqaUBKTNV-1">
          <mxGeometry x="375" y="220" width="90" height="90" as="geometry" />
        </mxCell>
        <mxCell id="U3PedLdftcRpJFfK1BTl-11" style="edgeStyle=orthogonalEdgeStyle;rounded=0;orthogonalLoop=1;jettySize=auto;html=1;exitX=0.5;exitY=1;exitDx=0;exitDy=0;entryX=0.5;entryY=0;entryDx=0;entryDy=0;" edge="1" parent="WIyWlLk6GJQsqaUBKTNV-1" source="U3PedLdftcRpJFfK1BTl-10" target="U3PedLdftcRpJFfK1BTl-1">
          <mxGeometry relative="1" as="geometry" />
        </mxCell>
        <mxCell id="U3PedLdftcRpJFfK1BTl-10" value="Wyświetl wynik" style="rounded=0;whiteSpace=wrap;html=1;" vertex="1" parent="WIyWlLk6GJQsqaUBKTNV-1">
          <mxGeometry x="360" y="340" width="120" height="60" as="geometry" />
        </mxCell>
        <mxCell id="U3PedLdftcRpJFfK1BTl-13" value="NIE" style="text;html=1;align=center;verticalAlign=middle;resizable=0;points=[];autosize=1;strokeColor=none;fillColor=none;" vertex="1" parent="WIyWlLk6GJQsqaUBKTNV-1">
          <mxGeometry x="420" y="310" width="40" height="30" as="geometry" />
        </mxCell>
        <mxCell id="U3PedLdftcRpJFfK1BTl-17" style="edgeStyle=orthogonalEdgeStyle;rounded=0;orthogonalLoop=1;jettySize=auto;html=1;exitX=0.5;exitY=0;exitDx=0;exitDy=0;entryX=0.5;entryY=0;entryDx=0;entryDy=0;" edge="1" parent="WIyWlLk6GJQsqaUBKTNV-1" source="U3PedLdftcRpJFfK1BTl-14" target="U3PedLdftcRpJFfK1BTl-8">
          <mxGeometry relative="1" as="geometry" />
        </mxCell>
        <mxCell id="U3PedLdftcRpJFfK1BTl-14" value="Wynik = wynik + a[i]" style="rounded=0;whiteSpace=wrap;html=1;" vertex="1" parent="WIyWlLk6GJQsqaUBKTNV-1">
          <mxGeometry x="210" y="235" width="120" height="60" as="geometry" />
        </mxCell>
        <mxCell id="U3PedLdftcRpJFfK1BTl-16" value="TAK" style="text;html=1;align=center;verticalAlign=middle;resizable=0;points=[];autosize=1;strokeColor=none;fillColor=none;" vertex="1" parent="WIyWlLk6GJQsqaUBKTNV-1">
          <mxGeometry x="330" y="235" width="50" height="30" as="geometry" />
        </mxCell>
      </root>
    </mxGraphModel>
  </diagram>
</mxfile>
